<svg width="14" height="14" viewBox="0 0 14 14" fill="none" xmlns="http://www.w3.org/2000/svg">
<path d="M0.88 14V-9.53674e-07H7.44C9.12 -9.53674e-07 10.4 0.333332 11.28 0.999999C12.16 1.65333 12.6 2.53333 12.6 3.64C12.6 4.38667 12.4267 5.02667 12.08 5.56C11.7333 6.08 11.2667 6.48667 10.68 6.78C10.1067 7.06 9.48 7.2 8.8 7.2L9.16 6.48C9.94667 6.48 10.6533 6.62667 11.28 6.92C11.9067 7.2 12.4 7.61333 12.76 8.16C13.1333 8.70667 13.32 9.38667 13.32 10.2C13.32 11.4 12.86 12.3333 11.94 13C11.02 13.6667 9.65333 14 7.84 14H0.88ZM3.48 11.96H7.68C8.65333 11.96 9.4 11.8 9.92 11.48C10.44 11.16 10.7 10.6467 10.7 9.94C10.7 9.24667 10.44 8.74 9.92 8.42C9.4 8.08667 8.65333 7.92 7.68 7.92H3.28V5.9H7.16C8.06667 5.9 8.76 5.74 9.24 5.42C9.73333 5.1 9.98 4.62 9.98 3.98C9.98 3.32667 9.73333 2.84 9.24 2.52C8.76 2.2 8.06667 2.04 7.16 2.04H3.48V11.96Z" fill="#41CD52"/>
</svg>
